# xmcd CD database file
#
# Track frame offsets:
#	150
#	16237
#	28887
#	40462
#	54062
#	64912
#	74925
#	89587
#	101475
#	114075
#	125037
#	138937
#	150175
#	162625
#	172787
#	184900
#
# Disc length: 2764 seconds
#
# Revision: 2
# Processed by: cddbd v1.4b41PL1 Copyright (c) Steve Scherf et al.
# Submitted via: Feurio! 1.50.2ß - http://www.feurio.com
#
DISCID=d90aca10
DTITLE=Various Artist - Golden Oldies
DYEAR=1900
DGENRE=
TTITLE0=Hazy Osterwald - Kriminaltango
TTITLE1=Will Brandes - Marina
TTITLE2=Siw Malmkvist - Zigeunerhochzeit
TTITLE3=Die Flippers - Monja
TTITLE4=Gus Backus - Der Mann im Mond
TTITLE5=Ricky Shayne - Ich sprenge alle Ketten
TTITLE6=Medium Terzett - Pepito
TTITLE7=Die Flippers - Weine nicht, kleine Eva
TTITLE8=Gus Backus - Da sprach der alte Häuptling der Indianer
TTITLE9=Billy Mo - Ich kauf mir lieber einen Tirolerhut
TTITLE10=Hazy Osterwald - Kunjunktur Cha Cha Cha
TTITLE11=Siw Malmkwist - Liebeskummer lohnt sich nicht 
TTITLE12=Medium Terzett - Siebenmal in der Woche
TTITLE13=Ralf Paulsen - Bonanza
TTITLE14=Die Flippers - Santo Domingo
TTITLE15=Ricky Shayne - Mamy Blue
EXTD=
EXTT0=
EXTT1=
EXTT2=
EXTT3=
EXTT4=
EXTT5=
EXTT6=
EXTT7=
EXTT8=
EXTT9=
EXTT10=
EXTT11=
EXTT12=
EXTT13=
EXTT14=
EXTT15=
PLAYORDER=
